# xmcd
#
# Track frame offsets:
#	150
#	18636
#	37016
#	54663
#	73154
#	90719
#	112453
#	126834
#	143983
#	164763
#	183411
#	202380
#	223003
#	242646
#
# Disc length: 3438 seconds
#
# Revision: 1
# Processed by: cddbd v1.4PL0 Copyright (c) Steve Scherf et al.
# Submitted via: EasyCDDAExtractor 6.0.0.1
#
DISCID=ea0d6c0e
DTITLE=Texas - Greatest Hits
DYEAR=1900
DGENRE=Country
TTITLE0=In Our Lifetime
TTITLE1=In Demand
TTITLE2=Say What You Want
TTITLE3=Summer Son
TTITLE4=Inner Smile
TTITLE5=So In Love With You
TTITLE6=Black Eyed Boy
TTITLE7=So Called Friend
TTITLE8=Everyday Now
TTITLE9=In Our Lifetime
TTITLE10=Halo
TTITLE11=Put Your Arms Around Me
TTITLE12=Prayer For You
TTITLE13=When We Are Together
EXTD=
EXTT0=
EXTT1=
EXTT2=
EXTT3=
EXTT4=
EXTT5=
EXTT6=
EXTT7=
EXTT8=
EXTT9=
EXTT10=
EXTT11=
EXTT12=
EXTT13=
PLAYORDER=
